<mxfile host="app.diagrams.net" modified="2021-09-26T12:18:02.192Z" agent="5.0 (Macintosh; Intel Mac OS X 10_15_7) AppleWebKit/537.36 (KHTML, like Gecko) Chrome/81.0.4044.138 Safari/537.36" etag="DT-Tq6fp8pz4oFJ4uoab" version="15.1.0" type="github">
  <diagram id="CfByyXH98lyFo_TxjOTY" name="Page-1">
    <mxGraphModel dx="1226" dy="433" grid="1" gridSize="10" guides="1" tooltips="1" connect="1" arrows="1" fold="1" page="1" pageScale="1" pageWidth="400" pageHeight="300" math="1" shadow="0">
      <root>
        <mxCell id="0" />
        <mxCell id="1" parent="0" />
        <mxCell id="kGuZ0Swbfz_hp6WvDoyl-2" value="\(\mathcal{G}=\)" style="text;html=1;resizable=0;autosize=1;align=center;verticalAlign=middle;points=[];fillColor=none;strokeColor=none;rounded=0;" parent="1" vertex="1">
          <mxGeometry x="-30" y="35" width="100" height="20" as="geometry" />
        </mxCell>
        <mxCell id="kGuZ0Swbfz_hp6WvDoyl-3" value="" style="ellipse;whiteSpace=wrap;html=1;aspect=fixed;fillColor=#fa6800;fontColor=#000000;strokeColor=#FA6800;" parent="1" vertex="1">
          <mxGeometry x="30" y="50" width="10" height="10" as="geometry" />
        </mxCell>
        <mxCell id="kGuZ0Swbfz_hp6WvDoyl-4" value="" style="ellipse;whiteSpace=wrap;html=1;aspect=fixed;fillColor=#fa6800;fontColor=#000000;strokeColor=#FA6800;" parent="1" vertex="1">
          <mxGeometry x="40" y="40" width="10" height="10" as="geometry" />
        </mxCell>
        <mxCell id="kGuZ0Swbfz_hp6WvDoyl-5" value="" style="ellipse;whiteSpace=wrap;html=1;aspect=fixed;fillColor=#fa6800;fontColor=#000000;strokeColor=#FA6800;" parent="1" vertex="1">
          <mxGeometry x="30" y="30" width="10" height="10" as="geometry" />
        </mxCell>
        <mxCell id="kGuZ0Swbfz_hp6WvDoyl-6" value="" style="endArrow=none;html=1;entryX=0;entryY=0;entryDx=0;entryDy=0;exitX=1;exitY=1;exitDx=0;exitDy=0;" parent="1" source="kGuZ0Swbfz_hp6WvDoyl-5" target="kGuZ0Swbfz_hp6WvDoyl-4" edge="1">
          <mxGeometry width="50" height="50" relative="1" as="geometry">
            <mxPoint x="70" y="20" as="sourcePoint" />
            <mxPoint x="55" y="45" as="targetPoint" />
          </mxGeometry>
        </mxCell>
        <mxCell id="kGuZ0Swbfz_hp6WvDoyl-7" value="" style="endArrow=none;html=1;exitX=1;exitY=0;exitDx=0;exitDy=0;entryX=0;entryY=1;entryDx=0;entryDy=0;" parent="1" source="kGuZ0Swbfz_hp6WvDoyl-3" target="kGuZ0Swbfz_hp6WvDoyl-4" edge="1">
          <mxGeometry width="50" height="50" relative="1" as="geometry">
            <mxPoint x="90" y="222" as="sourcePoint" />
            <mxPoint x="100" y="222" as="targetPoint" />
          </mxGeometry>
        </mxCell>
        <mxCell id="kGuZ0Swbfz_hp6WvDoyl-8" value="" style="ellipse;whiteSpace=wrap;html=1;aspect=fixed;fillColor=#fa6800;fontColor=#000000;strokeColor=#FA6800;" parent="1" vertex="1">
          <mxGeometry x="70" y="40" width="10" height="10" as="geometry" />
        </mxCell>
        <mxCell id="kGuZ0Swbfz_hp6WvDoyl-9" value="" style="ellipse;whiteSpace=wrap;html=1;aspect=fixed;fillColor=#fa6800;fontColor=#000000;strokeColor=#FA6800;" parent="1" vertex="1">
          <mxGeometry x="70" y="60" width="10" height="10" as="geometry" />
        </mxCell>
        <mxCell id="kGuZ0Swbfz_hp6WvDoyl-10" value="" style="ellipse;whiteSpace=wrap;html=1;aspect=fixed;fillColor=#fa6800;fontColor=#000000;strokeColor=#FA6800;" parent="1" vertex="1">
          <mxGeometry x="90" y="40" width="10" height="10" as="geometry" />
        </mxCell>
        <mxCell id="kGuZ0Swbfz_hp6WvDoyl-11" value="" style="endArrow=none;html=1;exitX=1;exitY=0.5;exitDx=0;exitDy=0;entryX=0;entryY=0.5;entryDx=0;entryDy=0;" parent="1" source="kGuZ0Swbfz_hp6WvDoyl-4" target="kGuZ0Swbfz_hp6WvDoyl-8" edge="1">
          <mxGeometry width="50" height="50" relative="1" as="geometry">
            <mxPoint x="90" y="222" as="sourcePoint" />
            <mxPoint x="100" y="222" as="targetPoint" />
          </mxGeometry>
        </mxCell>
        <mxCell id="kGuZ0Swbfz_hp6WvDoyl-12" value="" style="endArrow=none;html=1;exitX=1;exitY=0.5;exitDx=0;exitDy=0;entryX=0;entryY=0.5;entryDx=0;entryDy=0;" parent="1" source="kGuZ0Swbfz_hp6WvDoyl-8" target="kGuZ0Swbfz_hp6WvDoyl-10" edge="1">
          <mxGeometry width="50" height="50" relative="1" as="geometry">
            <mxPoint x="110" y="222" as="sourcePoint" />
            <mxPoint x="130" y="222" as="targetPoint" />
          </mxGeometry>
        </mxCell>
        <mxCell id="kGuZ0Swbfz_hp6WvDoyl-13" value="" style="endArrow=none;html=1;exitX=1;exitY=0;exitDx=0;exitDy=0;entryX=0;entryY=1;entryDx=0;entryDy=0;" parent="1" source="kGuZ0Swbfz_hp6WvDoyl-9" target="kGuZ0Swbfz_hp6WvDoyl-10" edge="1">
          <mxGeometry width="50" height="50" relative="1" as="geometry">
            <mxPoint x="140" y="222" as="sourcePoint" />
            <mxPoint x="150" y="222" as="targetPoint" />
          </mxGeometry>
        </mxCell>
        <mxCell id="kGuZ0Swbfz_hp6WvDoyl-14" value="" style="ellipse;whiteSpace=wrap;html=1;aspect=fixed;fillColor=#fa6800;fontColor=#000000;strokeColor=#FA6800;" parent="1" vertex="1">
          <mxGeometry x="70" y="20" width="10" height="10" as="geometry" />
        </mxCell>
        <mxCell id="kGuZ0Swbfz_hp6WvDoyl-15" value="" style="ellipse;whiteSpace=wrap;html=1;aspect=fixed;fillColor=#fa6800;fontColor=#000000;strokeColor=#FA6800;" parent="1" vertex="1">
          <mxGeometry x="90" y="20" width="10" height="10" as="geometry" />
        </mxCell>
        <mxCell id="kGuZ0Swbfz_hp6WvDoyl-16" value="" style="ellipse;whiteSpace=wrap;html=1;aspect=fixed;fillColor=#fa6800;fontColor=#000000;strokeColor=#FA6800;" parent="1" vertex="1">
          <mxGeometry x="50" y="20" width="10" height="10" as="geometry" />
        </mxCell>
        <mxCell id="kGuZ0Swbfz_hp6WvDoyl-17" value="" style="endArrow=none;html=1;exitX=1;exitY=0.5;exitDx=0;exitDy=0;entryX=0;entryY=0.5;entryDx=0;entryDy=0;" parent="1" source="kGuZ0Swbfz_hp6WvDoyl-14" target="kGuZ0Swbfz_hp6WvDoyl-15" edge="1">
          <mxGeometry width="50" height="50" relative="1" as="geometry">
            <mxPoint x="140" y="222" as="sourcePoint" />
            <mxPoint x="150" y="222" as="targetPoint" />
          </mxGeometry>
        </mxCell>
        <mxCell id="kGuZ0Swbfz_hp6WvDoyl-18" value="" style="endArrow=none;html=1;exitX=1;exitY=0.5;exitDx=0;exitDy=0;entryX=0;entryY=0.5;entryDx=0;entryDy=0;" parent="1" source="kGuZ0Swbfz_hp6WvDoyl-16" target="kGuZ0Swbfz_hp6WvDoyl-14" edge="1">
          <mxGeometry width="50" height="50" relative="1" as="geometry">
            <mxPoint x="140" y="202" as="sourcePoint" />
            <mxPoint x="150" y="202" as="targetPoint" />
          </mxGeometry>
        </mxCell>
        <mxCell id="kGuZ0Swbfz_hp6WvDoyl-19" value="" style="endArrow=none;html=1;entryX=0.5;entryY=0;entryDx=0;entryDy=0;exitX=0.5;exitY=1;exitDx=0;exitDy=0;" parent="1" source="kGuZ0Swbfz_hp6WvDoyl-14" target="kGuZ0Swbfz_hp6WvDoyl-8" edge="1">
          <mxGeometry width="50" height="50" relative="1" as="geometry">
            <mxPoint x="125" y="202" as="sourcePoint" />
            <mxPoint x="130" y="202" as="targetPoint" />
          </mxGeometry>
        </mxCell>
        <mxCell id="3dyqp-hgBsEXuZw8hZt5-2" value="\(\mathcal{G&#39;}=\)" style="text;html=1;resizable=0;autosize=1;align=center;verticalAlign=middle;points=[];fillColor=none;strokeColor=none;rounded=0;" vertex="1" parent="1">
          <mxGeometry x="-30" y="160" width="100" height="20" as="geometry" />
        </mxCell>
        <mxCell id="3dyqp-hgBsEXuZw8hZt5-3" value="" style="shape=flexArrow;endArrow=classic;html=1;strokeColor=#67AB9F;strokeWidth=2;" edge="1" parent="1">
          <mxGeometry width="50" height="50" relative="1" as="geometry">
            <mxPoint x="40" y="100" as="sourcePoint" />
            <mxPoint x="40" y="150" as="targetPoint" />
          </mxGeometry>
        </mxCell>
        <mxCell id="3dyqp-hgBsEXuZw8hZt5-4" value="&lt;font style=&quot;font-size: 5px&quot;&gt;Coarsening&lt;/font&gt;" style="edgeLabel;html=1;align=center;verticalAlign=middle;resizable=0;points=[];labelBackgroundColor=none;" vertex="1" connectable="0" parent="3dyqp-hgBsEXuZw8hZt5-3">
          <mxGeometry x="-0.4629" y="-1" relative="1" as="geometry">
            <mxPoint x="1" y="-24" as="offset" />
          </mxGeometry>
        </mxCell>
        <mxCell id="3dyqp-hgBsEXuZw8hZt5-40" value="" style="ellipse;whiteSpace=wrap;html=1;aspect=fixed;labelBackgroundColor=none;strokeColor=#FA6800;" vertex="1" parent="1">
          <mxGeometry x="30" y="190" width="30" height="30" as="geometry" />
        </mxCell>
        <mxCell id="3dyqp-hgBsEXuZw8hZt5-41" value="" style="ellipse;whiteSpace=wrap;html=1;aspect=fixed;labelBackgroundColor=none;strokeColor=#FA6800;" vertex="1" parent="1">
          <mxGeometry x="80" y="190" width="30" height="30" as="geometry" />
        </mxCell>
        <mxCell id="3dyqp-hgBsEXuZw8hZt5-42" value="" style="ellipse;whiteSpace=wrap;html=1;aspect=fixed;labelBackgroundColor=none;strokeColor=#FA6800;" vertex="1" parent="1">
          <mxGeometry x="40" y="150" width="30" height="30" as="geometry" />
        </mxCell>
        <mxCell id="3dyqp-hgBsEXuZw8hZt5-43" value="" style="endArrow=none;html=1;entryX=0;entryY=0.5;entryDx=0;entryDy=0;" edge="1" parent="1" target="3dyqp-hgBsEXuZw8hZt5-41">
          <mxGeometry width="50" height="50" relative="1" as="geometry">
            <mxPoint x="60" y="205" as="sourcePoint" />
            <mxPoint x="-110" y="205" as="targetPoint" />
          </mxGeometry>
        </mxCell>
        <mxCell id="3dyqp-hgBsEXuZw8hZt5-44" value="" style="endArrow=none;html=1;entryX=0;entryY=0;entryDx=0;entryDy=0;exitX=1;exitY=1;exitDx=0;exitDy=0;" edge="1" parent="1" source="3dyqp-hgBsEXuZw8hZt5-42" target="3dyqp-hgBsEXuZw8hZt5-41">
          <mxGeometry width="50" height="50" relative="1" as="geometry">
            <mxPoint x="70" y="215" as="sourcePoint" />
            <mxPoint x="90" y="215" as="targetPoint" />
          </mxGeometry>
        </mxCell>
        <mxCell id="3dyqp-hgBsEXuZw8hZt5-45" value="" style="rounded=0;whiteSpace=wrap;html=1;labelBackgroundColor=none;strokeColor=#FA6800;" vertex="1" parent="1">
          <mxGeometry x="140" y="35" width="30" height="10" as="geometry" />
        </mxCell>
        <mxCell id="3dyqp-hgBsEXuZw8hZt5-46" value="" style="rounded=0;whiteSpace=wrap;html=1;labelBackgroundColor=none;strokeColor=#FA6800;" vertex="1" parent="1">
          <mxGeometry x="140" y="25" width="30" height="10" as="geometry" />
        </mxCell>
        <mxCell id="3dyqp-hgBsEXuZw8hZt5-47" value="" style="rounded=0;whiteSpace=wrap;html=1;labelBackgroundColor=none;strokeColor=#FA6800;" vertex="1" parent="1">
          <mxGeometry x="140" y="15" width="30" height="10" as="geometry" />
        </mxCell>
        <mxCell id="3dyqp-hgBsEXuZw8hZt5-53" value="" style="endArrow=none;dashed=1;html=1;opacity=70;strokeColor=#808080;" edge="1" parent="1">
          <mxGeometry width="50" height="50" relative="1" as="geometry">
            <mxPoint y="120" as="sourcePoint" />
            <mxPoint x="400" y="120" as="targetPoint" />
          </mxGeometry>
        </mxCell>
        <mxCell id="3dyqp-hgBsEXuZw8hZt5-54" value="\(\bf{X&#39;}=\)" style="text;html=1;resizable=0;autosize=1;align=center;verticalAlign=middle;points=[];fillColor=none;strokeColor=none;rounded=0;" vertex="1" parent="1">
          <mxGeometry x="60" y="160" width="70" height="20" as="geometry" />
        </mxCell>
        <mxCell id="3dyqp-hgBsEXuZw8hZt5-55" value="\(\bf{X}=\)" style="text;html=1;resizable=0;autosize=1;align=center;verticalAlign=middle;points=[];fillColor=none;strokeColor=none;rounded=0;" vertex="1" parent="1">
          <mxGeometry x="90" y="35" width="70" height="20" as="geometry" />
        </mxCell>
        <mxCell id="3dyqp-hgBsEXuZw8hZt5-56" value="" style="rounded=0;whiteSpace=wrap;html=1;labelBackgroundColor=none;strokeColor=#FA6800;" vertex="1" parent="1">
          <mxGeometry x="140" y="45" width="30" height="10" as="geometry" />
        </mxCell>
        <mxCell id="3dyqp-hgBsEXuZw8hZt5-57" value="" style="rounded=0;whiteSpace=wrap;html=1;labelBackgroundColor=none;strokeColor=#FA6800;" vertex="1" parent="1">
          <mxGeometry x="140" y="55" width="30" height="10" as="geometry" />
        </mxCell>
        <mxCell id="3dyqp-hgBsEXuZw8hZt5-58" value="" style="rounded=0;whiteSpace=wrap;html=1;labelBackgroundColor=none;strokeColor=#FA6800;" vertex="1" parent="1">
          <mxGeometry x="140" y="65" width="30" height="10" as="geometry" />
        </mxCell>
        <mxCell id="3dyqp-hgBsEXuZw8hZt5-59" value="" style="rounded=0;whiteSpace=wrap;html=1;labelBackgroundColor=none;strokeColor=#FA6800;" vertex="1" parent="1">
          <mxGeometry x="180" y="180" width="30" height="10" as="geometry" />
        </mxCell>
        <mxCell id="3dyqp-hgBsEXuZw8hZt5-60" value="" style="rounded=0;whiteSpace=wrap;html=1;labelBackgroundColor=none;strokeColor=#FA6800;" vertex="1" parent="1">
          <mxGeometry x="180" y="170" width="30" height="10" as="geometry" />
        </mxCell>
        <mxCell id="3dyqp-hgBsEXuZw8hZt5-61" value="" style="rounded=0;whiteSpace=wrap;html=1;labelBackgroundColor=none;strokeColor=#FA6800;" vertex="1" parent="1">
          <mxGeometry x="180" y="160" width="30" height="10" as="geometry" />
        </mxCell>
        <mxCell id="3dyqp-hgBsEXuZw8hZt5-62" value="" style="rounded=0;whiteSpace=wrap;html=1;labelBackgroundColor=none;strokeColor=#FA6800;" vertex="1" parent="1">
          <mxGeometry x="180" y="190" width="30" height="10" as="geometry" />
        </mxCell>
        <mxCell id="3dyqp-hgBsEXuZw8hZt5-63" value="" style="rounded=0;whiteSpace=wrap;html=1;labelBackgroundColor=none;strokeColor=#FA6800;" vertex="1" parent="1">
          <mxGeometry x="180" y="200" width="30" height="10" as="geometry" />
        </mxCell>
        <mxCell id="3dyqp-hgBsEXuZw8hZt5-64" value="" style="rounded=0;whiteSpace=wrap;html=1;labelBackgroundColor=none;strokeColor=#FA6800;" vertex="1" parent="1">
          <mxGeometry x="180" y="210" width="30" height="10" as="geometry" />
        </mxCell>
        <mxCell id="3dyqp-hgBsEXuZw8hZt5-65" value="" style="rounded=0;whiteSpace=wrap;html=1;labelBackgroundColor=none;fontColor=#ffffff;fillColor=none;strokeColor=#67AB9F;" vertex="1" parent="1">
          <mxGeometry x="120" y="160" width="50" height="30" as="geometry" />
        </mxCell>
        <mxCell id="3dyqp-hgBsEXuZw8hZt5-68" value="" style="rounded=0;whiteSpace=wrap;html=1;labelBackgroundColor=none;fontColor=#ffffff;fillColor=none;strokeColor=#67AB9F;" vertex="1" parent="1">
          <mxGeometry x="120" y="160" width="50" height="10" as="geometry" />
        </mxCell>
        <mxCell id="3dyqp-hgBsEXuZw8hZt5-69" value="" style="rounded=0;whiteSpace=wrap;html=1;labelBackgroundColor=none;fontColor=#ffffff;fillColor=none;strokeColor=#67AB9F;" vertex="1" parent="1">
          <mxGeometry x="120" y="180" width="50" height="10" as="geometry" />
        </mxCell>
        <mxCell id="3dyqp-hgBsEXuZw8hZt5-70" value="&lt;font style=&quot;font-size: 11px&quot; color=&quot;#67ab9f&quot;&gt;1&lt;/font&gt;" style="text;html=1;strokeColor=none;fillColor=none;align=center;verticalAlign=middle;whiteSpace=wrap;rounded=0;labelBackgroundColor=none;" vertex="1" parent="1">
          <mxGeometry x="130" y="162.5" width="20" height="5" as="geometry" />
        </mxCell>
        <mxCell id="3dyqp-hgBsEXuZw8hZt5-71" value="&lt;font style=&quot;font-size: 11px&quot; color=&quot;#67ab9f&quot;&gt;1&lt;/font&gt;" style="text;html=1;strokeColor=none;fillColor=none;align=center;verticalAlign=middle;whiteSpace=wrap;rounded=0;labelBackgroundColor=none;" vertex="1" parent="1">
          <mxGeometry x="135" y="162.5" width="20" height="5" as="geometry" />
        </mxCell>
        <mxCell id="3dyqp-hgBsEXuZw8hZt5-72" value="&lt;font style=&quot;font-size: 11px&quot; color=&quot;#67ab9f&quot;&gt;1&lt;/font&gt;" style="text;html=1;strokeColor=none;fillColor=none;align=center;verticalAlign=middle;whiteSpace=wrap;rounded=0;labelBackgroundColor=none;" vertex="1" parent="1">
          <mxGeometry x="150" y="162.5" width="20" height="5" as="geometry" />
        </mxCell>
        <mxCell id="3dyqp-hgBsEXuZw8hZt5-73" value="&lt;font style=&quot;font-size: 11px&quot; color=&quot;#67ab9f&quot;&gt;1&lt;/font&gt;" style="text;html=1;strokeColor=none;fillColor=none;align=center;verticalAlign=middle;whiteSpace=wrap;rounded=0;labelBackgroundColor=none;" vertex="1" parent="1">
          <mxGeometry x="115" y="172.5" width="20" height="5" as="geometry" />
        </mxCell>
        <mxCell id="3dyqp-hgBsEXuZw8hZt5-74" value="&lt;font style=&quot;font-size: 11px&quot; color=&quot;#67ab9f&quot;&gt;1&lt;/font&gt;" style="text;html=1;strokeColor=none;fillColor=none;align=center;verticalAlign=middle;whiteSpace=wrap;rounded=0;labelBackgroundColor=none;" vertex="1" parent="1">
          <mxGeometry x="140" y="172.5" width="20" height="5" as="geometry" />
        </mxCell>
        <mxCell id="3dyqp-hgBsEXuZw8hZt5-75" value="&lt;font style=&quot;font-size: 11px&quot; color=&quot;#67ab9f&quot;&gt;1&lt;/font&gt;" style="text;html=1;strokeColor=none;fillColor=none;align=center;verticalAlign=middle;whiteSpace=wrap;rounded=0;labelBackgroundColor=none;" vertex="1" parent="1">
          <mxGeometry x="155" y="172.5" width="20" height="5" as="geometry" />
        </mxCell>
        <mxCell id="3dyqp-hgBsEXuZw8hZt5-76" value="&lt;font style=&quot;font-size: 11px&quot; color=&quot;#67ab9f&quot;&gt;1&lt;/font&gt;" style="text;html=1;strokeColor=none;fillColor=none;align=center;verticalAlign=middle;whiteSpace=wrap;rounded=0;labelBackgroundColor=none;" vertex="1" parent="1">
          <mxGeometry x="120" y="182.5" width="20" height="5" as="geometry" />
        </mxCell>
        <mxCell id="3dyqp-hgBsEXuZw8hZt5-77" value="&lt;font style=&quot;font-size: 11px&quot; color=&quot;#67ab9f&quot;&gt;1&lt;/font&gt;" style="text;html=1;strokeColor=none;fillColor=none;align=center;verticalAlign=middle;whiteSpace=wrap;rounded=0;labelBackgroundColor=none;" vertex="1" parent="1">
          <mxGeometry x="145" y="182.5" width="20" height="5" as="geometry" />
        </mxCell>
        <mxCell id="3dyqp-hgBsEXuZw8hZt5-78" value="&lt;font style=&quot;font-size: 11px&quot; color=&quot;#67ab9f&quot;&gt;1&lt;/font&gt;" style="text;html=1;strokeColor=none;fillColor=none;align=center;verticalAlign=middle;whiteSpace=wrap;rounded=0;labelBackgroundColor=none;" vertex="1" parent="1">
          <mxGeometry x="125" y="182.5" width="20" height="5" as="geometry" />
        </mxCell>
      </root>
    </mxGraphModel>
  </diagram>
</mxfile>
